<svg width="19" height="19" viewBox="0 0 19 19" fill="none" xmlns="http://www.w3.org/2000/svg">
<path d="M0.0416504 0.501338C0.107585 0.313718 0.245336 0.159966 0.424611 0.0738912C0.603887 -0.0121835 0.810008 -0.0235332 0.99765 0.0423377L1.29965 0.148338C1.91565 0.365338 2.43965 0.549338 2.85165 0.751338C3.29165 0.968338 3.67065 1.23434 3.95465 1.65034C4.23665 2.06234 4.35265 2.51534 4.40665 3.01234C4.42998 3.23434 4.44432 3.48034 4.44965 3.75034H15.0887C16.7737 3.75034 18.2896 3.75034 18.7337 4.32734C19.1777 4.90434 19.0037 5.77434 18.6577 7.51334L18.1577 9.93834C17.8427 11.4663 17.6847 12.2313 17.1327 12.6803C16.5816 13.1303 15.8006 13.1303 14.2396 13.1303H8.93765C6.14865 13.1303 4.75465 13.1303 3.88765 12.2163C3.02065 11.3023 2.95765 10.3323 2.95765 7.39034V4.78834C2.95765 4.04834 2.95765 3.55334 2.91665 3.17334C2.87665 2.81034 2.80665 2.62834 2.71665 2.49634C2.62865 2.36734 2.49565 2.24634 2.19165 2.09834C1.86965 1.94034 1.43065 1.78434 0.76265 1.54934L0.50165 1.45834C0.408634 1.4257 0.322966 1.37504 0.249544 1.30926C0.176123 1.24348 0.116389 1.16387 0.0737584 1.07499C0.0311282 0.986108 0.0064382 0.889694 0.00110038 0.791261C-0.00423744 0.692828 0.00888173 0.594309 0.0416504 0.501338ZM5.45765 15.7503C5.85547 15.7503 6.23701 15.9084 6.51831 16.1897C6.79961 16.471 6.95765 16.8525 6.95765 17.2503C6.95765 17.6482 6.79961 18.0297 6.51831 18.311C6.23701 18.5923 5.85547 18.7503 5.45765 18.7503C5.05983 18.7503 4.67829 18.5923 4.39699 18.311C4.11569 18.0297 3.95765 17.6482 3.95765 17.2503C3.95765 16.8525 4.11569 16.471 4.39699 16.1897C4.67829 15.9084 5.05983 15.7503 5.45765 15.7503ZM14.4577 15.7503C14.8555 15.7503 15.237 15.9084 15.5183 16.1897C15.7996 16.471 15.9577 16.8525 15.9577 17.2503C15.9577 17.6482 15.7996 18.0297 15.5183 18.311C15.237 18.5923 14.8555 18.7503 14.4577 18.7503C14.0598 18.7503 13.6783 18.5923 13.397 18.311C13.1157 18.0297 12.9577 17.6482 12.9577 17.2503C12.9577 16.8525 13.1157 16.471 13.397 16.1897C13.6783 15.9084 14.0598 15.7503 14.4577 15.7503Z" fill="#FCF9EF"/>
</svg>
