<svg width="13" height="18" viewBox="0 0 13 18" fill="none" xmlns="http://www.w3.org/2000/svg">
<path d="M6.5 0C7.41827 0 8.31592 0.26392 9.07943 0.758387C9.84295 1.25285 10.438 1.95566 10.7894 2.77792C11.1408 3.60019 11.2328 4.50499 11.0536 5.37791C10.8745 6.25082 10.4323 7.05264 9.783 7.68198C9.13368 8.31132 8.3064 8.7399 7.40578 8.91353C6.50515 9.08717 5.57163 8.99805 4.72326 8.65746C3.87488 8.31686 3.14977 7.74009 2.63961 7.00007C2.12944 6.26004 1.85714 5.39002 1.85714 4.5L1.86179 4.3047C1.91371 3.14618 2.42506 2.0518 3.28921 1.24979C4.15335 0.447787 5.30357 6.69982e-05 6.5 0ZM8.35714 10.8C9.5885 10.8 10.7694 11.2741 11.6401 12.118C12.5108 12.9619 13 14.1065 13 15.3V16.2C13 16.6774 12.8043 17.1352 12.4561 17.4728C12.1078 17.8104 11.6354 18 11.1429 18H1.85714C1.3646 18 0.892226 17.8104 0.543944 17.4728C0.195663 17.1352 0 16.6774 0 16.2V15.3C0 14.1065 0.489157 12.9619 1.35986 12.118C2.23057 11.2741 3.41149 10.8 4.64286 10.8H8.35714Z" fill="#FCF9EF"/>
</svg>
